<?xml version="1.0" encoding="utf-8"?>
<!-- Generator: Adobe Illustrator 27.1.1, SVG Export Plug-In . SVG Version: 6.00 Build 0)  -->
<svg version="1.1" id="Layer_1" xmlns="http://www.w3.org/2000/svg" xmlns:xlink="http://www.w3.org/1999/xlink" x="0px" y="0px"
	 viewBox="0 0 2069.2 394" style="enable-background:new 0 0 2069.2 394;" xml:space="preserve">
<style type="text/css">
	.st0{fill:#00C896;}
	.st1{fill:#FFFFFF;}
	.st2{fill:#003C3C;}
</style>
<g>
	<g>
		<path class="st0" d="M394,197c0,108.8-88.2,197-197,197C88.2,394,0,305.8,0,197S88.2,0,197,0C305.8,0,394,88.2,394,197"/>
		<path class="st1" d="M295.3,119.4V95h-25.6c-20.5-14.6-45.6-23.3-72.7-23.3c-27.1,0-52.2,8.6-72.7,23.3H98.7v24.4
			c-16.9,21.3-26.9,48.3-26.9,77.6c0,42.7,21.4,80.5,54.1,103.1c0,0,0,0,0,0c2,1.4,4.2,2.7,6.4,3.9l64.7,34.3l64.7-34.3
			c2.4-1.3,4.6-2.7,6.8-4.2c0,0,0,0,0,0c32.5-22.6,53.7-60.2,53.7-102.8C322.2,167.7,312.2,140.7,295.3,119.4"/>
		<path class="st2" d="M290.1,248.4V100.5H103.9v147.9c0,21.5,11.9,41.2,30.8,51.2l62.3,33l62.3-33
			C278.2,289.6,290.1,269.9,290.1,248.4 M230.5,296.4c0-3.3,2.7-5.9,5.9-5.9c3.3,0,5.9,2.7,5.9,5.9c0,3.3-2.7,5.9-5.9,5.9
			C233.2,302.4,230.5,299.7,230.5,296.4 M190.7,315.9c0-3.3,2.7-5.9,5.9-5.9c3.3,0,5.9,2.7,5.9,5.9c0,3.3-2.7,5.9-5.9,5.9
			C193.4,321.8,190.7,319.2,190.7,315.9 M172,289l25-13.5l24.9,13.5l-25,13.2L172,289z M151.1,296.4c0-3.3,2.7-5.9,5.9-5.9
			c3.3,0,5.9,2.7,5.9,5.9c0,3.3-2.7,5.9-5.9,5.9C153.8,302.3,151.1,299.6,151.1,296.4 M130.8,239.7l43.1,23.3l-25.2,13.6l-1.3-0.7
			c-5-2.6-9.2-6.6-12.1-11.4c-2.9-4.8-4.5-10.4-4.5-16V239.7z M111.3,235.4c0-3.3,2.7-5.9,5.9-5.9c3.3,0,5.9,2.7,5.9,5.9
			c0,3.3-2.7,5.9-5.9,5.9C114,241.4,111.3,238.7,111.3,235.4 M111.3,195.3c0-3.3,2.7-5.9,5.9-5.9c3.3,0,5.9,2.7,5.9,5.9
			c0,3.3-2.7,5.9-5.9,5.9C114,201.3,111.3,198.6,111.3,195.3 M111.3,155.2c0-3.3,2.7-5.9,5.9-5.9c3.3,0,5.9,2.7,5.9,5.9
			c0,3.3-2.7,5.9-5.9,5.9C114,161.2,111.3,158.5,111.3,155.2 M123.4,114.1c0,3.3-2.7,5.9-5.9,5.9c-3.3,0-5.9-2.7-5.9-5.9
			c0-3.3,2.7-5.9,5.9-5.9C120.7,108.2,123.4,110.9,123.4,114.1 M129.9,271.2c0,3.3-2.7,5.9-5.9,5.9c-3.3,0-5.9-2.7-5.9-5.9
			c0-3.3,2.7-5.9,5.9-5.9C127.2,265.3,129.9,267.9,129.9,271.2 M176.2,114.1c0,3.3-2.7,5.9-5.9,5.9c-3.3,0-5.9-2.7-5.9-5.9
			c0-3.3,2.7-5.9,5.9-5.9C173.6,108.2,176.2,110.9,176.2,114.1 M229.1,114.1c0,3.3-2.7,5.9-5.9,5.9c-3.3,0-5.9-2.7-5.9-5.9
			c0-3.3,2.7-5.9,5.9-5.9C226.5,108.2,229.1,110.9,229.1,114.1 M263.2,214.8L197,250.5l-66.2-35.8v-87.2h132.4V214.8z M263.2,248.4
			c0,5.6-1.5,11.2-4.4,16c-2.9,4.8-7.1,8.8-12.1,11.4l-1.3,0.7L220.2,263l43-23.2V248.4z M270.1,265.4c3.3,0,5.9,2.7,5.9,5.9
			c0,3.3-2.7,5.9-5.9,5.9c-3.3,0-5.9-2.7-5.9-5.9C264.1,268.1,266.8,265.4,270.1,265.4 M282,114.1c0,3.3-2.7,5.9-5.9,5.9
			c-3.3,0-5.9-2.7-5.9-5.9c0-3.3,2.7-5.9,5.9-5.9C279.4,108.2,282,110.9,282,114.1 M282,155.4c0,3.3-2.7,5.9-5.9,5.9
			c-3.3,0-5.9-2.7-5.9-5.9c0-3.3,2.7-5.9,5.9-5.9C279.4,149.4,282,152.1,282,155.4 M282,195.4c0,3.3-2.7,5.9-5.9,5.9
			c-3.3,0-5.9-2.7-5.9-5.9c0-3.3,2.7-5.9,5.9-5.9C279.4,189.5,282,192.2,282,195.4 M282,235.5c0,3.3-2.7,5.9-5.9,5.9
			c-3.3,0-5.9-2.7-5.9-5.9c0-3.3,2.7-5.9,5.9-5.9C279.4,229.6,282,232.3,282,235.5 M197,228.7l2.5,1.8h16.5l3-1.5v-20.8l-1.6-1.6
			v21.2l-4.1-2c-2.6-1.3-4.9-1.9-7.1-1.9c-2.2,0-4.6,0.6-7.1,1.9l-2.1,1l-2.1-1c-2.6-1.3-4.9-1.9-7.1-1.9c-2.2,0-4.5,0.6-7.1,1.9
			l-4.1,2v-21.4l-1.6,1.8V229l3,1.5h16.5L197,228.7z M211.4,191.7l12.7,9.6c0.9-6.8,1.7-13.5,2.4-19.8l-18.1-13.7
			c0.9,7.6,1.9,15.7,3,23.7L211.4,191.7z M229.4,168.2c-1.6,13.3-3.2,26.5-4.9,39.8c8.4,4.1,17.9,4.1,26.3,0
			c-1.7-13.2-3.3-26.5-4.9-39.8C240.4,167.4,234.9,167.4,229.4,168.2 M236.4,180.1c0-1,0.3-1.9,0.8-2.7c0.2-0.3,0.3-0.4,0.5-0.7
			c0.2,0.3,0.3,0.4,0.5,0.7c0.5,0.8,0.8,1.7,0.8,2.7v6.5c-0.9,0-1.7,0-2.6,0V180.1z M245.9,166.9c0.8-1.2,1.6-2.3,2.5-3.4
			c-7.1-1.9-14.4-1.9-21.5,0c0.8,1.1,1.7,2.3,2.5,3.4C234.9,166,240.4,166,245.9,166.9 M238.3,160.6c3.4,0.1,6.8,0.6,10.1,1.6v-6.5
			c-1.2-0.5-2.5-0.9-3.7-1.2c-0.4,0.8-0.8,1.6-1.3,2.5c-0.8-0.2-1.7-0.3-2.6-0.4c-0.4-1-0.9-1.9-1.3-2.9c-1.3-0.1-2.6-0.1-3.9,0
			c-0.4,1-0.9,1.9-1.3,2.9c-0.9,0.1-1.7,0.2-2.5,0.4c-0.4-0.8-0.8-1.6-1.3-2.5c-1.3,0.3-2.5,0.7-3.7,1.2v6.5
			C230.6,161,234.5,160.5,238.3,160.6 M227.3,175.1l-2.3-1.7l-0.6,1.4l-2.1-1.6l-0.8-2.5l-2.1-1.6l-0.8,1.2l-2.1-1.6l-0.8-2.5
			l-2.1-1.6l-0.8,1.2l-2.1-1.6l-0.8-2.5l-2.3-1.7c0,0,0.5,4.4,0.7,6.1l18.5,14C226.8,179.1,227.3,175.1,227.3,175.1 M205.2,150.6
			c0.8-1.2,1.6-2.3,2.5-3.4c-7.1-1.9-14.4-1.9-21.5,0c0.9,1.1,1.7,2.3,2.5,3.4C194.2,149.7,199.7,149.7,205.2,150.6 M196.3,144.3
			c3.8-0.1,7.7,0.4,11.4,1.6v-6.5c-1.2-0.5-2.5-0.9-3.7-1.2c-0.4,0.8-0.8,1.6-1.3,2.5c-0.8-0.2-1.7-0.3-2.6-0.4
			c-0.4-1-0.9-1.9-1.3-2.9c-1.3-0.1-2.6-0.1-3.9,0c-0.4,1-0.9,1.9-1.3,2.9c-0.9,0.1-1.7,0.2-2.6,0.4c-0.4-0.8-0.8-1.6-1.3-2.5
			c-1.3,0.3-2.5,0.7-3.7,1.2v6.5C189.5,144.9,192.9,144.4,196.3,144.3 M186.5,160l-2.3,1.7l-0.8,2.5l-2.1,1.6l-0.8-1.2l-2.1,1.6
			l-0.8,2.5l-2.1,1.6l-0.8-1.2l-2.1,1.6l-0.8,2.5l-2.1,1.6l-0.6-1.4l-2.3,1.7c0,0,0.5,4.1,0.6,5l18.5-14
			C185.9,164.5,186.5,160,186.5,160 M164.6,166.9c0.8-1.2,1.6-2.3,2.5-3.4c-7.1-1.9-14.4-1.9-21.5,0c0.8,1.1,1.7,2.3,2.5,3.4
			C153.5,166,159,166,164.6,166.9 M155.6,160.6c3.8-0.1,7.7,0.4,11.4,1.6v-6.5c-1.2-0.5-2.5-0.9-3.7-1.2c-0.4,0.8-0.8,1.6-1.3,2.5
			c-0.8-0.2-1.7-0.3-2.6-0.4c-0.4-1-0.9-1.9-1.3-2.9c-1.3-0.1-2.6-0.1-3.9,0c-0.4,1-0.9,1.9-1.3,2.9c-0.9,0.1-1.7,0.2-2.5,0.4
			c-0.4-0.8-0.8-1.6-1.3-2.5c-1.3,0.3-2.5,0.7-3.7,1.2v6.5C148.8,161.1,152.2,160.6,155.6,160.6 M148,168.2
			c-1.6,13.3-3.1,26.5-4.9,39.8c8.4,4.1,17.9,4.1,26.3,0c-1.7-13.2-3.3-26.5-4.9-39.8C159,167.4,153.5,167.4,148,168.2 M155,180.1
			c0-1,0.3-1.9,0.8-2.7c0.2-0.3,0.3-0.4,0.5-0.7c0.2,0.3,0.3,0.4,0.5,0.7c0.5,0.8,0.8,1.7,0.8,2.7v6.5c-0.9,0-1.7,0-2.6,0V180.1z
			 M169.8,201.3l12.7-9.6l0-0.2c1-8.1,2-16.1,3-23.7l-18.1,13.7C168.2,187.9,169,194.6,169.8,201.3 M195.4,224.4l0.6,0.3v-23
			c-3-1.5-5.7-2.2-8.4-2.2c-2.9,0-5.7,0.8-9,2.5l-0.8,0.4v23l2-1c2.8-1.3,5.3-2,7.7-2C190.2,222.4,192.7,223,195.4,224.4
			 M206.1,199.5c-2.7,0-5.3,0.7-8.3,2.2v23l0.6-0.3c2.8-1.3,5.3-2,7.7-2c2.4,0,5,0.7,7.7,2l2,1v-23l-0.8-0.4
			C211.8,200.3,209,199.5,206.1,199.5 M196.9,179.4c1.9,1.2,3.5,2.8,4.6,4.7c1.1,1.9,1.7,4,1.7,6.3v2c0.7,0.6,1,0.8,1.8,1.3
			c1.8-0.5,3.5-1.2,5.1-2c-1.7-13.2-3.3-26.5-4.9-39.8c-5.5-0.8-11-0.8-16.6,0c-1.6,13.3-3.2,26.5-4.9,39.8c1.7,0.8,3.4,1.5,5.1,2
			c0.7-0.6,1-0.8,1.8-1.3v-2C190.7,185.9,193.1,181.7,196.9,179.4 M198.2,170.3c-0.9,0-1.7,0-2.6,0v-6.5c0-1,0.3-1.9,0.8-2.7
			c0.2-0.3,0.3-0.4,0.5-0.7c0.2,0.3,0.3,0.4,0.5,0.7c0.5,0.8,0.8,1.7,0.8,2.7V170.3z"/>
		<path class="st2" d="M357.9,228.8c-0.1,0.7-0.5,1.2-1,1.5c-0.5,0.3-1.1,0.5-1.8,0.3c-0.7-0.1-1.2-0.5-1.6-1
			c-0.4-0.5-0.5-1.1-0.3-1.8c0.1-0.7,0.5-1.2,1-1.5c0.5-0.3,1.1-0.5,1.8-0.3c0.7,0.1,1.2,0.5,1.5,1
			C357.9,227.5,358.1,228.1,357.9,228.8 M337.3,260.8l1.8-4.3c0.4-1.1,1.1-1.8,1.9-2.1c0.8-0.3,1.7-0.3,2.6,0.1c1,0.4,1.6,1,1.9,1.9
			c0.3,0.8,0.2,1.8-0.2,2.8l-1.8,4.2L337.3,260.8z M358.7,260.4l1.8-4.3l-12.1,3.6c0.4-1.1,0.5-2.1,0.5-3.1
			c-0.1-1.2-0.4-2.3-1.1-3.2c-0.7-0.9-1.6-1.7-2.8-2.2c-1.2-0.5-2.3-0.7-3.5-0.5c-1.1,0.2-2.2,0.6-3.1,1.4c-1,0.8-1.7,1.8-2.3,3.1
			l-3.3,7.9l21,8.9l1.5-3.4l-8.9-3.8l0.4-0.9L358.7,260.4z M341.6,293.7c-1,1.4-2.1,2.5-3.5,3.2c-1.4,0.7-2.9,1-4.5,0.9
			c-1.6-0.1-3.1-0.6-4.5-1.6l-11.7-7.9l2.1-3.1l11.7,7.8c0.9,0.6,1.8,1,2.8,1c0.9,0.1,1.8-0.1,2.6-0.5c0.8-0.4,1.5-1,2.1-1.9
			c0.6-0.8,0.9-1.7,0.9-2.6c0.1-0.9-0.1-1.8-0.5-2.6c-0.4-0.8-1.1-1.5-2-2.2l-11.7-7.9l2.1-3.1l11.8,7.9c1.4,1,2.5,2.1,3.2,3.5
			c0.7,1.4,1,2.9,0.9,4.4C343.1,290.7,342.6,292.2,341.6,293.7 M326.1,313.6l-15.9-16.4l-1.9,1.8l3.7,16.2l-16.1-4.2l-1.9,1.8
			l15.9,16.4l2.7-2.6l-10.2-10.5l11.5,3l1.9-1.8l-2.6-11.6l10.2,10.5L326.1,313.6z M294,340.9l-12.9-18.8l3.1-2.1l12.9,18.8
			L294,340.9z M272.9,353.4c-1.5,0.7-3.1,1.1-4.7,1c-1.6-0.1-3-0.6-4.3-1.5c-1.3-0.9-2.3-2.1-3.1-3.6l-6.2-12.7l3.4-1.6l6.2,12.7
			c0.5,1,1.1,1.8,1.9,2.3c0.8,0.5,1.6,0.8,2.5,0.9c0.9,0,1.8-0.1,2.7-0.6c0.9-0.4,1.6-1,2.1-1.8c0.5-0.7,0.8-1.6,0.8-2.5
			c0.1-0.9-0.2-1.9-0.6-2.9l-6.2-12.7l3.4-1.6l6.2,12.7c0.7,1.5,1.1,3.1,1,4.6c-0.1,1.6-0.6,3-1.5,4.3
			C275.7,351.7,274.5,352.7,272.9,353.4 M242,360.2c-1,1-2.2,1.6-3.7,2c-1.1,0.3-2.2,0.3-3.2,0.2c-1-0.2-2-0.5-2.8-1
			c-0.8-0.5-1.6-1.2-2.2-2.1c-0.6-0.9-1.1-1.9-1.4-3.1c-0.4-1.6-0.4-3-0.1-4.3c0.3-1.3,1-2.5,2-3.4c1-0.9,2.2-1.6,3.6-2
			c1.1-0.3,2.2-0.3,3.2-0.2c1,0.1,1.9,0.5,2.8,1c0.9,0.5,1.6,1.2,2.2,2.1c0.6,0.9,1.1,1.9,1.4,3c0.4,1.6,0.4,3,0.1,4.4
			c0,0.1,0,0.1,0,0.2L239,354l-1.7,2.9l5.1,3C242.2,360,242.1,360.1,242,360.2 M251.4,361.4l-4.3-2.6c0.3-0.9,0.6-1.7,0.7-2.7
			c0.2-1.5,0.1-3.1-0.3-4.7c-0.4-1.6-1.1-3-2-4.2c-0.9-1.2-2-2.2-3.3-3c-1.3-0.8-2.7-1.3-4.2-1.5c-1.5-0.2-3-0.2-4.6,0.2
			c-1.6,0.4-3,1.1-4.2,2c-1.2,0.9-2.2,2-3,3.3c-0.8,1.3-1.3,2.7-1.5,4.2c-0.2,1.5-0.1,3.1,0.2,4.6c0.4,1.6,1.1,3,2,4.2
			c0.9,1.2,2,2.2,3.3,3c1.3,0.8,2.7,1.3,4.2,1.5c1.5,0.2,3.1,0.2,4.6-0.2c1.6-0.4,2.9-1.1,4.1-2c0.7-0.6,1.4-1.2,2-1.9l4.3,2.6
			L251.4,361.4z M214.4,369.9l-0.2-3.4l-11.6,0.6l-0.3-6.6l10.5-0.5l-0.2-3.3l-10.5,0.5l-0.3-6.1l11.4-0.6l-0.2-3.4l-15.2,0.8
			l1.2,22.8L214.4,369.9z M176.2,369.6c-1.8-0.2-3.3-0.7-4.4-1.5c-1.2-0.8-2.2-1.9-3-3.2l2.8-2.2c0.5,1,1.2,1.8,2,2.4
			c0.8,0.6,1.9,1,3.2,1.2c1.3,0.1,2.3,0,3.1-0.4c0.8-0.4,1.3-1.1,1.4-2c0.1-0.8,0-1.4-0.4-1.9c-0.3-0.5-0.8-1-1.4-1.4
			c-0.6-0.4-1.3-0.8-2-1.1c-0.7-0.3-1.5-0.7-2.2-1.1c-0.7-0.4-1.4-0.9-2-1.4c-0.6-0.5-1-1.2-1.3-2c-0.3-0.8-0.4-1.8-0.2-2.9
			c0.2-1.3,0.6-2.4,1.4-3.3c0.8-0.9,1.7-1.5,2.9-1.8c1.2-0.4,2.5-0.5,3.8-0.3c1.5,0.2,2.8,0.6,3.9,1.4c1.1,0.7,2,1.6,2.6,2.6
			l-2.8,2.2c-0.6-0.8-1.2-1.4-1.8-1.9c-0.7-0.4-1.4-0.7-2.3-0.8c-1.1-0.1-2,0-2.7,0.4c-0.7,0.4-1.1,1-1.2,1.8
			c-0.1,0.7,0,1.3,0.4,1.7c0.3,0.5,0.8,0.9,1.4,1.2c0.6,0.4,1.3,0.7,2,1.1c0.7,0.4,1.5,0.7,2.2,1.1c0.7,0.4,1.4,0.9,2,1.5
			c0.6,0.6,1,1.3,1.3,2.1c0.3,0.8,0.4,1.9,0.2,3.1c-0.2,2-1.1,3.5-2.7,4.6C180.7,369.6,178.7,369.9,176.2,369.6 M144.6,338.6
			l-13.6,9.6l-2.2-16.5l-2.4-1l-9.1,20.9l3.4,1.5l5.8-13.4l1.6,11.8l2.4,1l9.7-6.9l-5.8,13.4l3.4,1.5l9.1-20.9L144.6,338.6z
			 M115.1,327.9l2-2.8l-12.4-8.7l-13.1,18.7l12.6,8.8l2-2.8l-9.5-6.6l3.8-5.4l8.6,6l1.9-2.7l-8.6-6l3.5-5L115.1,327.9z M74,320
			c-1.2-1.2-2-2.5-2.6-3.9c-0.6-1.4-0.8-2.9-0.8-4.4c0-1.5,0.4-2.9,1-4.3c0.6-1.4,1.5-2.7,2.7-3.8c1.2-1.1,2.5-2,3.9-2.6
			c1.4-0.6,2.9-0.9,4.3-0.9s2.9,0.3,4.4,0.9c1.4,0.6,2.7,1.5,3.9,2.6c1.3,1.3,2.2,2.7,2.7,4.1c0.5,1.4,0.8,2.8,0.7,4.3l-3.6,0
			c0.1-1-0.1-2-0.5-3c-0.4-1-1-1.9-1.9-2.8c-0.8-0.8-1.6-1.4-2.6-1.8c-0.9-0.4-1.9-0.6-2.9-0.6c-1,0-2,0.2-3,0.7
			c-1,0.4-1.9,1.1-2.7,1.9c-0.9,0.8-1.5,1.7-2,2.7c-0.5,1-0.7,1.9-0.7,2.9c0,1,0.1,2,0.5,2.9c0.4,0.9,1,1.8,1.7,2.6
			c1,1,1.9,1.7,2.9,2.1c1,0.4,2,0.6,3,0.5l0,3.6c-1.5,0-2.9-0.3-4.4-0.9C76.6,322.2,75.3,321.3,74,320 M51.7,292.5
			c-0.9-1.4-1.5-2.9-1.6-4.5c-0.1-1.6,0.2-3.1,0.9-4.5c0.7-1.4,1.8-2.6,3.2-3.5l11.8-7.8l2.1,3.1l-11.8,7.7c-0.9,0.6-1.6,1.3-2,2.2
			c-0.4,0.8-0.6,1.7-0.5,2.6c0.1,0.9,0.4,1.8,0.9,2.6c0.6,0.9,1.2,1.5,2,1.9c0.8,0.4,1.7,0.6,2.6,0.5c0.9-0.1,1.9-0.4,2.8-1
			l11.8-7.8l2.1,3.1l-11.8,7.8c-1.4,0.9-2.9,1.5-4.5,1.5c-1.6,0.1-3-0.2-4.4-0.9C53.9,295.1,52.7,294,51.7,292.5 M57.4,254l-1.5-3.4
			l-20.9,9l5.7,13.3l3.1-1.4l-4.3-9.9L57.4,254z M36.1,228.8c-0.1-0.7,0-1.3,0.4-1.8c0.4-0.5,0.9-0.9,1.5-1c0.7-0.1,1.3,0,1.8,0.3
			c0.5,0.3,0.9,0.9,1,1.5c0.1,0.7,0,1.3-0.3,1.8c-0.4,0.5-0.9,0.9-1.6,1c-0.7,0.1-1.3,0-1.8-0.3C36.5,230,36.2,229.5,36.1,228.8
			 M366.4,194.2c-0.6,0.7-1.4,1-2.4,1c-1.1,0-1.9-0.3-2.5-0.9c-0.6-0.6-0.9-1.5-1-2.7l-0.2-4.6l6.8-0.2l0.2,4.6
			C367.3,192.7,367,193.6,366.4,194.2 M370.2,183.1l-22.8,0.8l0.1,3.7l9.7-0.3l0,1l-9.4,8.1l0.2,4.7l9.4-8.3
			c0.1,1.1,0.4,2.2,0.9,3.1c0.6,1.1,1.4,1.9,2.4,2.4c1,0.6,2.2,0.8,3.5,0.8c1.3,0,2.4-0.4,3.3-1c1-0.6,1.7-1.5,2.3-2.6
			c0.5-1.1,0.8-2.4,0.7-3.8L370.2,183.1z M347,160.9l6.4-1.4l2.2,10.2l3.2-0.7l-2.2-10.2l5.9-1.3l2.4,11.2l3.3-0.7l-3.2-14.8
			l-22.3,4.9l3.3,15l3.3-0.7L347,160.9z M357.8,140.6l3.2-1.3l-7.1-17.2l-3.2,1.3l2.8,6.9l-17.9,7.4l1.4,3.5l17.9-7.4L357.8,140.6z
			 M331.1,108.1l5.6,8.9l2.8-1.8l-5.6-8.9l5.1-3.2l6.1,9.7l2.9-1.8l-8.1-12.8l-19.3,12.2l8.2,13l2.9-1.8l-6.2-9.8L331.1,108.1z
			 M328.5,83.4l-10.1,1.5l2.2-10.1l-3-3.2l-2.8,13.4l-14.2,1.8l2.9,3.1l11.2-1.5l-2.6,10.8l3,3.2l3.3-13.9l13.2-1.8L328.5,83.4z
			 M298.5,72.1l2-2.6l-8.4-6.2l3.6-4.9l9.2,6.8l2-2.7l-12.2-9l-13.6,18.3l12.3,9.1l2-2.7l-9.3-6.9l3.9-5.3L298.5,72.1z M268.1,42.2
			l1.3-3.2l-13.6-5.5l-8.5,21.1l3.5,1.4l3.7-9.1l9.7,3.9l1.3-3.2l-9.7-3.9l2.3-5.7L268.1,42.2z M226.3,45.7c1.5,0.3,2.9,0.2,4.2-0.2
			c1.3-0.5,2.4-1.2,3.2-2.3c0.9-1.1,1.5-2.4,1.8-4c0.2-1.2,0.2-2.3,0.1-3.3c-0.2-1-0.5-2-1.1-2.8c-0.5-0.8-1.2-1.6-2.1-2.1
			c-0.9-0.6-1.8-1-3-1.2c-1.5-0.3-2.9-0.2-4.1,0.2c-1.3,0.5-2.3,1.2-3.2,2.3c-0.9,1.1-1.5,2.4-1.8,4c-0.2,1.2-0.3,2.3-0.1,3.4
			c0.2,1.1,0.5,2,1.1,2.8c0.5,0.8,1.2,1.5,2.1,2.1C224.2,45.1,225.2,45.5,226.3,45.7 M225.6,49.2c-1.6-0.3-3-0.9-4.3-1.8
			c-1.3-0.9-2.3-1.9-3.2-3.2c-0.8-1.3-1.4-2.6-1.7-4.2c-0.3-1.5-0.3-3.1,0-4.7c0.3-1.6,0.9-3,1.7-4.3c0.9-1.3,1.9-2.3,3.1-3.2
			c1.2-0.9,2.6-1.4,4.1-1.8c1.5-0.3,3-0.3,4.6,0c1.6,0.3,3,0.9,4.3,1.7c1.3,0.9,2.3,1.9,3.1,3.2c0.8,1.3,1.4,2.6,1.7,4.2
			c0.3,1.5,0.3,3.1,0,4.7c-0.3,1.6-0.9,3-1.8,4.3c-0.9,1.3-1.9,2.3-3.1,3.2c-1.2,0.8-2.6,1.4-4.1,1.8
			C228.8,49.5,227.2,49.5,225.6,49.2 M195,23l-4.3,0.3l-5.3,9.7l-6.6-8.9l-4.3,0.3l9.3,12.3l0.7,9.9l3.7-0.3l-0.7-10L195,23z
			 M166.3,29.3l-0.8-3.3l-18.1,4.4l0.8,3.3l7.2-1.7l4.5,18.8l3.6-0.9L159.1,31L166.3,29.3z M140.9,57l-8.2-21.3l3.5-1.4l8.2,21.3
			L140.9,57z M123.1,65.9c-1.6,0.9-3.1,1.3-4.5,1.4c-1.4,0-2.9-0.2-4.4-0.8l1-3.5c1,0.5,2,0.7,3,0.8c1,0,2.1-0.3,3.3-1
			c1.1-0.6,1.8-1.3,2.2-2.2c0.4-0.8,0.4-1.6-0.1-2.4c-0.4-0.7-0.8-1.1-1.4-1.3c-0.6-0.2-1.2-0.3-1.9-0.3c-0.7,0-1.5,0.1-2.3,0.3
			c-0.8,0.2-1.6,0.3-2.4,0.4c-0.8,0.1-1.6,0.1-2.4,0c-0.8-0.1-1.5-0.4-2.3-0.9c-0.7-0.5-1.4-1.2-1.9-2.2c-0.7-1.2-0.9-2.3-0.8-3.5
			c0.1-1.1,0.5-2.2,1.3-3.2c0.7-1,1.7-1.8,2.9-2.5c1.3-0.7,2.6-1.1,3.9-1.2c1.3-0.1,2.5,0.1,3.6,0.6l-1,3.5
			c-0.9-0.3-1.8-0.5-2.6-0.4c-0.8,0-1.6,0.3-2.4,0.7c-1,0.6-1.6,1.2-2,1.9c-0.3,0.7-0.3,1.4,0.1,2.1c0.3,0.6,0.8,1,1.3,1.2
			c0.5,0.2,1.2,0.2,1.9,0.2c0.7-0.1,1.5-0.2,2.3-0.3c0.8-0.1,1.6-0.3,2.4-0.4c0.8-0.1,1.7-0.1,2.5,0.1c0.8,0.1,1.6,0.5,2.3,1
			c0.7,0.5,1.4,1.3,2,2.4c1,1.8,1.2,3.5,0.5,5.3C126.7,63.2,125.3,64.7,123.1,65.9 M86.3,67.4l3.6-2.9c0.9-0.7,1.8-1,2.7-0.9
			c0.9,0.1,1.6,0.5,2.3,1.3c0.7,0.8,0.9,1.7,0.8,2.5c-0.1,0.9-0.6,1.7-1.5,2.4l-3.6,2.9L86.3,67.4z M105.4,77l3.7-3l-12.3-2.5
			c0.8-0.8,1.5-1.6,1.9-2.6c0.5-1.1,0.7-2.2,0.5-3.4c-0.2-1.1-0.6-2.2-1.5-3.2c-0.8-1-1.7-1.7-2.8-2c-1.1-0.4-2.2-0.5-3.4-0.2
			c-1.2,0.2-2.4,0.8-3.5,1.7l-6.6,5.4l14.4,17.7l2.9-2.4l-6.1-7.5l0.7-0.6L105.4,77z M87,93.4l-2.6-2.2l-7.5,8.9l-5-4.2l6.8-8
			l-2.5-2.1l-6.8,8l-4.7-3.9l7.4-8.7l-2.6-2.2l-9.8,11.6l17.4,14.7L87,93.4z M52.7,99.9l-2,3.5l11,14.1l-17.6-2.8l-2.1,3.5l24.3,3.6
			l1.3-2.2L52.7,99.9z M57.1,140.7l-21-8.8l1.4-3.5l21,8.8L57.1,140.7z M52.7,152.2l-22.1-5.4l-0.9,3.6l15.3,3.7l-18.1,8l-0.6,2.5
			l22.1,5.4l0.9-3.6L34,162.7l18.1-8L52.7,152.2z M46.7,190c-0.1,1.7-0.5,3.2-1.4,4.6c-0.8,1.3-2,2.4-3.4,3.1
			c-1.4,0.7-2.9,1.1-4.7,1l-14.1-0.7l0.2-3.7l14.1,0.7c1.1,0.1,2.1-0.1,2.9-0.6c0.8-0.4,1.5-1,2-1.8c0.5-0.8,0.7-1.7,0.8-2.7
			c0-1-0.1-1.9-0.5-2.7c-0.4-0.8-1-1.4-1.8-1.9c-0.8-0.5-1.7-0.8-2.8-0.8l-14.1-0.7l0.2-3.7l14.1,0.7c1.7,0.1,3.2,0.5,4.5,1.4
			c1.3,0.8,2.3,2,3,3.3C46.4,186.7,46.8,188.2,46.7,190"/>
	</g>
	<g>
		<rect x="484.4" y="236.9" class="st0" width="1584.8" height="8.9"/>
	</g>
	<path class="st2" d="M734.1,46.7c0-6,4.9-10.9,10.9-10.9c6,0,10.9,4.9,10.9,10.9S751,57.5,745,57.5C739,57.5,734.1,52.7,734.1,46.7
		z M498.1,48.7v67.5c0,33.3,18.7,51.5,51.8,51.5c33.6,0,52.4-18.2,52.4-52.3V48.8c0-6.9,3.4-13.4,9.1-17.3l4.8-3.3h-39.9l5.5,3.4
		c6.1,3.9,9.9,10.6,9.9,17.8v62.5c0,14.5,0,45.8-36.8,45.8c-33.7,0-38-25.2-38-45.8V48.7c0-6.8,3.3-13.2,8.9-17.2l4.7-3.3h-45.9
		l4.7,3.3C494.8,35.5,498.1,41.9,498.1,48.7z M736.9,98.1v48.2c0,6.2-2.7,12-7.4,16.1l-3.2,2.7h38.5l-3.5-2.7
		c-5.2-4-8.2-10.2-8.2-16.7V68.3l-26.8,10.5l4.3,4.2C734.6,86.9,736.9,92.4,736.9,98.1z M1069,159.4c-9.9,0-21.3-10.4-24.9-18.6
		l-11.8,13.8c5.9,7.5,22.7,13.4,34,13.4c22.7,0,38.5-11.1,38.5-29.1c0-14.9-8.5-21.4-22.7-27.1l-9.8-4c-11.5-4.6-19.8-9.3-19.8-18.3
		c0-8.9,6.7-13.1,16-13.1c15.5,0.1,23.3,16.3,23.3,16.3c3.4-6.4,4.9-9.3,8.8-16.5c-7.1-3.7-18.2-8.4-29.8-8.4
		c-20.9,0-34.4,10.3-34.4,26.9c0,16.6,12.7,22.7,24.8,27.6l10.1,4.1c9.4,3.9,16.2,7.7,16.2,16.9
		C1087.6,154.3,1080.2,159.4,1069,159.4z M782.3,94.5l27.1,70.6c0.1,0,12.5,0,12.6,0l28.2-70.8c1.9-4.7,4.4-9.1,7.5-13
		c3.1-3.9,6.7-7.4,10.9-10.3h-30.8l0.1,0.1c4.1,5.5,5.2,12.8,2.7,19.2l-18,47.7c-1.2,3-2.1,5.9-3,8.9c-0.8-2.9-1.8-5.9-2.9-8.9
		l-18.4-47.6c-0.9-2.4-1.4-4.8-1.4-7.3c0-4.3,1.4-8.6,4-12.1h-37.1C772.3,76.8,778.7,85,782.3,94.5z M1132,57.5
		c6,0,10.9-4.9,10.9-10.9s-4.9-10.9-10.9-10.9c-6,0-10.9,4.9-10.9,10.9S1126,57.5,1132,57.5z M864.2,103.7
		c5.8-20.4,25.6-35.3,46.5-35.3c20.9,0,39.2,14.9,45,35.3c0.8,2.9,1.4,6,1.7,9.1h-73.6c0,0.1,0,0.3,0,0.4l0,0.4c0,0.3,0,0.7-0.1,1
		c0,0.4,0,0.7,0,1.1c0,0.3,0,0.7,0,1c0,0.3,0,0.7,0,1c0,0.3,0,0.7,0,1c0.9,20.3,13.5,36.6,30.2,38c0.7,0.1,1.5,0.1,2.3,0.1
		c14.2,0,26.4-10.8,31.1-25.9h8.9c-5.2,21.3-23.3,37-44.7,37c-25.6,0-49.2-22.3-49.2-49.8c0-1.8,0.1-3.6,0.3-5.4
		C862.8,109.6,863.3,106.6,864.2,103.7z M885.2,103.7h50.5c-3.7-14.9-11.4-25.9-23.3-27c-0.7-0.1-1.3-0.1-2-0.1
		C897.7,76.6,889.1,87.9,885.2,103.7z M965.3,162.4l-3.2,2.7h39.7l-4-2.8c-5.7-3.9-9-10.4-9-17.3V99.5
		c16.9-16.1,37.4-10.4,37.4-10.4V67.5c-28,0-38.5,22.2-38.5,22.2l-1.9-21.4l-22.8,10.5l4.4,4.9c3.5,3.9,5.4,8.9,5.4,14.1v48.6
		C972.7,152.5,970,158.4,965.3,162.4z M1140.1,145.7V68.3l-26.8,10.5l4.3,4.2c4.1,4,6.4,9.4,6.4,15.1v48.2c0,6.2-2.7,12-7.4,16.1
		l-3.2,2.7h38.5l-3.5-2.7C1143.1,158.4,1140.1,152.2,1140.1,145.7z M1281.8,71l0.1,0.1c6,5.5,8.1,14,5.4,21.6
		c-5.3,15.1-18.7,53.4-19.9,57.8c-1.2-4.3-20.3-56.9-20.3-56.9c-3-8.1-0.5-17.2,6.2-22.7l-35.8-0.1l0,0h-28.9V37.2l-16.4,14.5v19.2
		h-15.9v9.9h15.9v65.3c0,10.2,5.2,20.7,22.4,20.7c7.9,0,16.7-2.8,24-8.7l-1.7-4.7c-20.6,4.8-28.4,1.3-28.4-12.5V80.8h35.6l31.8,84.3
		h6c0,0-12.6,27.9-32.9,27.9l7.8,13.8c18.7-5.4,31-33.2,41.8-61.9l21.6-57.7c1.7-4.6,4.5-8.8,8.1-12.1l4.4-4H1281.8z M681,162.4
		l-3.3,2.7h38l-3.3-2.7c-4.9-4-7.7-10-7.7-16.3V99.8c0-18.5-6.7-31.5-28.3-31.5c-11.3,0-22.3,5-30.1,14.6
		c-0.7-5.1-1.9-14.6-1.9-14.6l-24.6,10.5l4.6,4.6c3.9,3.9,6.1,9.3,6.1,14.8v48.1c0,6.2-2.7,12.1-7.4,16.1l-3.2,2.7h38.5l-3.5-2.6
		c-5.2-4-8.3-10.2-8.3-16.8V95.4c2.6-5.2,11.7-14.1,22.6-14.1c15.4,0,19.5,7.6,19.5,21.5v43.4C688.6,152.5,685.8,158.4,681,162.4z
		 M1725,143.3l-20-28.7l19.7-24.5c5.1-6.4,11-12.1,17.5-17.1l2.5-2l-34,0c5.9,5,6.8,13.7,2.2,19.9c-4.4,5.9-8.8,11.8-13.2,17.7
		l-12.4-18.3c-4-6-3.1-14,2.2-18.9l0.4-0.4h-42l0.7,0.5c7.9,5.5,14.7,12.4,20.1,20.4l20.1,29.3l-19.7,25.1
		c-5.3,6.7-11.4,12.8-18.1,18l-1.1,0.9h33.9l-0.1-0.1c-6.4-4.8-7.7-13.9-2.9-20.3c4.4-5.9,8.8-11.9,13.2-17.8l13.5,19.5
		c4,5.8,3.3,13.6-1.6,18.6l-0.2,0.2h41.9l-0.2-0.1C1738.6,159.3,1731,151.9,1725,143.3z M1924.3,115.6c0,0.3,0,0.7,0,1
		c0,0.3,0,0.7,0,1c0,0.3,0,0.7,0,1c0.9,20.3,13.5,36.6,30.2,38c0.8,0.1,1.5,0.1,2.3,0.1c14.2,0,26.4-10.8,31.1-25.9h8.9
		c-5.2,21.3-23.3,37-44.7,37c-25.6,0-49.2-22.3-49.2-49.8c0-1.8,0.1-3.6,0.3-5.4c0.3-3.1,0.9-6.2,1.7-9.1
		c5.8-20.4,25.6-35.3,46.5-35.3c20.9,0,39.2,14.9,45,35.3c0.8,2.9,1.4,6,1.7,9.1h-73.6c0,0.1,0,0.3,0,0.4l0,0.4c0,0.3,0,0.7-0.1,1
		C1924.4,114.8,1924.3,115.2,1924.3,115.6z M1925.9,103.6h50.5c-3.7-14.9-11.4-25.9-23.3-27c-0.7-0.1-1.3-0.1-2-0.1
		C1938.4,76.5,1929.8,87.8,1925.9,103.6z M1873.7,141.4V81.3h24.1V71.2h-24.1V37.5L1857.3,52v19.1h-15.9v10.1h15.9v65.2
		c0,10.2,5.2,20.7,22.4,20.7c7.9,0,16.7-2.8,24-8.7l-1.7-4.7C1881.4,158.6,1873.7,155.2,1873.7,141.4z M1429.8,104.6
		c0,32.7-26.3,62.2-59.7,62.2c-22.8,0-34.9-11.9-34.9-36.3c0-32.7,26.3-62.2,59.7-62.2C1417.7,68.2,1429.8,80.1,1429.8,104.6z
		 M1410.9,95.2c0-12.5-3.8-19.6-16.2-19.5c-23.5,0.2-40.6,34.1-40.6,64.2c0,12.5,3.8,19.6,16.2,19.5
		C1393.8,159.2,1410.9,125.2,1410.9,95.2z M2030.8,89.2l-1.9-21.4L2006,78.3l4.4,4.9c3.5,3.9,5.4,8.9,5.4,14.1v48.6
		c0,6.2-2.7,12-7.4,16.1l-3.2,2.7h39.7l-4-2.8c-5.7-3.9-9-10.4-9-17.3V99c16.9-16.1,37.4-10.4,37.4-10.4V67
		C2041.2,67,2030.8,89.2,2030.8,89.2z M1455.1,59.5c-0.8,3.8-1.4,7.5-2.2,11.4H1435V80l-0.1,0.4h16.3l-15.2,80.1
		c-2.8,14.7-6.1,27.3-22.6,45.9l3.5,2.9c20.1-11.9,30.9-24.8,34.5-43.5l16.4-85.3l28.4-0.2v-9.4h-26.5c5.2-27,6.6-48.7,21.1-48.7
		c4.7,0,13.5,2.8,20.1,7.6l6.5-12c-3.1-3.1-11.7-5.4-17.2-5.4C1477.8,12.3,1460.5,31.5,1455.1,59.5z M1764.9,115.6c0,0.3,0,0.7,0,1
		c0,0.3,0,0.7,0,1c0,0.3,0,0.7,0,1c0.9,20.3,13.5,36.6,30.2,38c0.7,0.1,1.5,0.1,2.3,0.1c14.2,0,26.4-10.8,31.1-25.9h8.9
		c-5.2,21.3-23.3,37-44.7,37c-25.6,0-49.2-22.3-49.2-49.8c0-1.8,0.1-3.6,0.3-5.4c0.3-3.1,0.9-6.2,1.7-9.1
		c5.8-20.4,25.6-35.3,46.5-35.3c20.9,0,39.2,14.9,45,35.3c0.8,2.9,1.4,6,1.7,9.1H1765c0,0.1,0,0.3,0,0.4l0,0.4c0,0.3,0,0.7-0.1,1
		C1764.9,114.8,1764.9,115.2,1764.9,115.6z M1766.4,103.6h50.5c-3.7-14.9-11.4-25.9-23.3-27c-0.7-0.1-1.3-0.1-2-0.1
		C1778.9,76.5,1770.3,87.8,1766.4,103.6z M1594.3,156.3c-5.2,0-12.1,0-21,0l0.3-60.9h17.3c6.3,0,12.7,0.7,18.9,2.1l17.8,4V82.2
		l-18.8,3.9c-5.7,1.2-11.6,1.8-17.5,1.8h-18V36.1c10,0,17.6,0,23.2,0c7.6,0,15.2,1.8,22,5.2l21,10.3l-2.1-23.5h-96.5l4.8,3.3
		c5.7,3.9,9,10.4,9,17.3l-0.1,95.7c0,6.9-3.4,13.3-9,17.2l-4.8,3.3h99.6l1.7-24.5l-21.4,9.8C1612.5,154.3,1603.5,156.3,1594.3,156.3
		z"/>
	<g>
		<path class="st2" d="M508.3,354.4c-3.8,0-7.3-0.7-10.5-2.1c-3.2-1.4-6-3.3-8.4-5.8c-2.4-2.5-4.3-5.3-5.6-8.6
			c-1.3-3.3-1.9-6.8-1.9-10.5s0.6-7.3,1.9-10.5c1.3-3.3,3.2-6.1,5.6-8.6c2.4-2.4,5.2-4.4,8.4-5.8c3.2-1.4,6.7-2.1,10.5-2.1
			c4.2,0,7.9,0.7,11,2.1c3.1,1.4,5.9,3.3,8.2,5.7l-5.8,5.9c-1.6-1.7-3.4-3-5.7-4c-2.2-0.9-4.8-1.4-7.8-1.4c-2.6,0-5,0.5-7.1,1.4
			c-2.2,0.9-4,2.2-5.6,3.9c-1.6,1.7-2.8,3.7-3.6,6c-0.9,2.3-1.3,4.8-1.3,7.6c0,2.8,0.4,5.3,1.3,7.6c0.8,2.3,2.1,4.3,3.6,6
			c1.6,1.7,3.4,3,5.6,3.9c2.1,0.9,4.5,1.3,7.1,1.3c3.2,0,5.9-0.5,8.1-1.5c2.2-1,4.1-2.3,5.7-4l5.8,5.8c-2.4,2.5-5.2,4.4-8.5,5.8
			C516.2,353.7,512.5,354.4,508.3,354.4z"/>
		<path class="st2" d="M550.2,354.4c-3.6,0-6.8-0.8-9.7-2.4c-2.9-1.6-5.2-3.9-6.8-6.7c-1.7-2.9-2.5-6-2.5-9.6c0-3.5,0.8-6.7,2.5-9.6
			c1.6-2.8,3.9-5.1,6.7-6.7c2.8-1.7,6-2.5,9.4-2.5c3.3,0,6.3,0.8,8.9,2.3c2.6,1.6,4.6,3.7,6.1,6.4c1.5,2.7,2.2,5.8,2.2,9.2
			c0,0.6,0,1.2-0.1,1.8c-0.1,0.6-0.2,1.3-0.3,2.1h-29.6V332h25.3l-3.1,2.7c-0.1-2.2-0.5-4-1.3-5.5s-1.8-2.6-3.2-3.5
			c-1.4-0.8-3.1-1.2-5.1-1.2c-2.1,0-3.9,0.5-5.5,1.4c-1.6,0.9-2.8,2.2-3.6,3.8c-0.9,1.6-1.3,3.6-1.3,5.8s0.4,4.2,1.3,5.9
			c0.9,1.7,2.2,3,3.8,3.9c1.7,0.9,3.5,1.4,5.7,1.4c1.8,0,3.6-0.3,5.1-1c1.6-0.6,2.9-1.6,4-2.9l5.2,5.3c-1.8,2.1-3.9,3.6-6.4,4.6
			C555.7,353.9,553,354.4,550.2,354.4z"/>
		<path class="st2" d="M573.5,353.7v-36h8.2v36H573.5z M598.2,353.7v-20.8c0-2.4-0.8-4.4-2.3-5.9c-1.5-1.5-3.5-2.3-5.9-2.3
			c-1.6,0-3,0.4-4.3,1c-1.3,0.7-2.2,1.7-2.9,2.9c-0.7,1.3-1.1,2.7-1.1,4.3l-3.2-1.8c0-2.7,0.6-5.2,1.8-7.3c1.2-2.1,2.9-3.8,5-5
			c2.1-1.2,4.5-1.8,7.2-1.8c2.7,0,5.1,0.7,7.2,2.1c2.1,1.4,3.8,3.2,4.9,5.3s1.8,4.4,1.8,6.8v22.6H598.2z"/>
		<path class="st2" d="M611.3,325.2v-7.5h25.5v7.5H611.3z M619.9,353.7v-51h8.2v51H619.9z"/>
		<path class="st2" d="M642.8,353.7v-36h8.2v36H642.8z M651,333.7l-2.8-1.4c0-4.5,1-8.2,3-11.1c2-2.8,5.1-4.2,9.2-4.2
			c1.8,0,3.4,0.3,4.9,1c1.4,0.7,2.8,1.7,4.1,3.1l-5.4,5.6c-0.7-0.7-1.4-1.2-2.2-1.5c-0.8-0.3-1.7-0.4-2.8-0.4
			c-2.3,0-4.2,0.7-5.7,2.2C651.8,328.3,651,330.6,651,333.7z"/>
		<path class="st2" d="M689,354.4c-3.6,0-6.8-0.8-9.7-2.4c-2.9-1.6-5.2-3.9-6.8-6.7c-1.7-2.9-2.5-6-2.5-9.6c0-3.5,0.8-6.7,2.5-9.6
			c1.6-2.8,3.9-5.1,6.7-6.7c2.8-1.7,6-2.5,9.4-2.5c3.3,0,6.3,0.8,8.9,2.3c2.6,1.6,4.6,3.7,6.1,6.4c1.5,2.7,2.2,5.8,2.2,9.2
			c0,0.6,0,1.2-0.1,1.8c-0.1,0.6-0.2,1.3-0.3,2.1h-29.6V332H701l-3.1,2.7c-0.1-2.2-0.5-4-1.3-5.5s-1.8-2.6-3.2-3.5
			c-1.4-0.8-3.1-1.2-5.1-1.2c-2.1,0-3.9,0.5-5.5,1.4c-1.6,0.9-2.8,2.2-3.6,3.8c-0.9,1.6-1.3,3.6-1.3,5.8s0.4,4.2,1.3,5.9
			c0.9,1.7,2.2,3,3.8,3.9c1.7,0.9,3.5,1.4,5.7,1.4c1.8,0,3.6-0.3,5.1-1c1.6-0.6,2.9-1.6,4-2.9l5.2,5.3c-1.8,2.1-3.9,3.6-6.4,4.6
			C694.4,353.9,691.8,354.4,689,354.4z"/>
		<path class="st2" d="M723.6,325.2v-7.5h27.8v7.5H723.6z M732.2,353.7V313c0-2.7,0.6-5.2,1.8-7.3c1.2-2.1,2.9-3.8,5.1-4.9
			c2.2-1.2,4.7-1.8,7.5-1.8c2.2,0,4.1,0.4,5.6,1.1c1.5,0.8,3,1.8,4.4,3.2l-5.3,5.3c-0.6-0.6-1.3-1.1-1.9-1.4
			c-0.7-0.3-1.6-0.5-2.7-0.5c-2,0-3.5,0.5-4.6,1.6c-1.1,1.1-1.6,2.6-1.6,4.6v40.8H732.2z"/>
		<path class="st2" d="M772.2,354.4c-3.5,0-6.7-0.8-9.5-2.5c-2.9-1.7-5.1-3.9-6.8-6.8c-1.7-2.8-2.5-6-2.5-9.5c0-3.5,0.8-6.6,2.5-9.4
			c1.7-2.8,3.9-5,6.8-6.7c2.8-1.7,6-2.5,9.5-2.5c3.5,0,6.8,0.8,9.6,2.5c2.8,1.6,5.1,3.9,6.8,6.7c1.7,2.8,2.5,6,2.5,9.5
			c0,3.5-0.8,6.7-2.5,9.5c-1.7,2.9-3.9,5.1-6.8,6.8C779,353.6,775.8,354.4,772.2,354.4z M772.2,346.5c2,0,3.9-0.5,5.4-1.4
			c1.6-0.9,2.8-2.2,3.7-3.9c0.9-1.6,1.3-3.5,1.3-5.6s-0.4-3.9-1.4-5.6c-0.9-1.6-2.1-2.9-3.7-3.8c-1.6-0.9-3.4-1.4-5.4-1.4
			c-2,0-3.8,0.5-5.4,1.4c-1.6,0.9-2.8,2.2-3.7,3.8c-0.9,1.6-1.3,3.5-1.3,5.6s0.4,4,1.3,5.6c0.9,1.6,2.1,2.9,3.7,3.9
			C768.4,346,770.2,346.5,772.2,346.5z"/>
		<path class="st2" d="M797.9,353.7v-36h8.2v36H797.9z M806.2,333.7l-2.8-1.4c0-4.5,1-8.2,3-11.1c2-2.8,5.1-4.2,9.2-4.2
			c1.8,0,3.4,0.3,4.9,1c1.4,0.7,2.8,1.7,4.1,3.1l-5.4,5.6c-0.7-0.7-1.4-1.2-2.2-1.5c-0.8-0.3-1.7-0.4-2.8-0.4
			c-2.3,0-4.2,0.7-5.7,2.2C806.9,328.3,806.2,330.6,806.2,333.7z"/>
		<path class="st2" d="M859.4,353.7l-17.2-52.5h8.5l13,40.4h-2.2l12.7-40.4h6l12.7,40.4h-2.2l13-40.4h8.5l-17.2,52.5h-6l-12.8-40.3
			h2.2l-12.8,40.3H859.4z"/>
		<path class="st2" d="M928.3,354.4c-3.3,0-6.2-0.8-8.8-2.5c-2.6-1.7-4.7-3.9-6.2-6.7c-1.5-2.8-2.3-6-2.3-9.5c0-3.5,0.8-6.7,2.3-9.6
			c1.5-2.8,3.6-5.1,6.2-6.8c2.6-1.7,5.6-2.5,8.8-2.5c2.7,0,5.2,0.6,7.3,1.8c2.1,1.2,3.8,2.8,5.1,4.8c1.2,2.1,1.9,4.4,1.9,7v10.4
			c0,2.6-0.6,4.9-1.8,7c-1.2,2.1-2.9,3.7-5.1,4.8C933.5,353.9,931,354.4,928.3,354.4z M929.6,346.6c3,0,5.5-1,7.4-3.1
			c1.9-2,2.8-4.7,2.8-7.9c0-2.1-0.4-4-1.3-5.7c-0.9-1.6-2-2.9-3.6-3.9c-1.5-0.9-3.3-1.4-5.4-1.4c-2,0-3.8,0.5-5.3,1.4
			c-1.5,0.9-2.7,2.2-3.6,3.9c-0.9,1.6-1.3,3.6-1.3,5.7c0,2.2,0.4,4.1,1.3,5.7c0.9,1.7,2.1,2.9,3.6,3.9
			C925.9,346.2,927.6,346.6,929.6,346.6z M939.3,353.7V344l1.4-8.8l-1.4-8.7v-8.9h8.2v36H939.3z"/>
		<path class="st2" d="M953.6,325.2v-7.5h25.5v7.5H953.6z M962.2,353.7v-51h8.2v51H962.2z"/>
		<path class="st2" d="M1000.7,354.4c-3.6,0-6.8-0.8-9.7-2.4c-2.9-1.6-5.2-3.9-6.8-6.7c-1.7-2.9-2.5-6-2.5-9.6
			c0-3.5,0.8-6.7,2.5-9.6c1.6-2.8,3.9-5.1,6.7-6.7c2.8-1.7,6-2.5,9.4-2.5c3.3,0,6.3,0.8,8.9,2.3c2.6,1.6,4.6,3.7,6.1,6.4
			c1.5,2.7,2.2,5.8,2.2,9.2c0,0.6,0,1.2-0.1,1.8c-0.1,0.6-0.2,1.3-0.3,2.1h-29.6V332h25.3l-3.1,2.7c-0.1-2.2-0.5-4-1.3-5.5
			s-1.8-2.6-3.2-3.5c-1.4-0.8-3.1-1.2-5.1-1.2c-2.1,0-3.9,0.5-5.5,1.4c-1.6,0.9-2.8,2.2-3.6,3.8c-0.9,1.6-1.3,3.6-1.3,5.8
			s0.4,4.2,1.3,5.9c0.9,1.7,2.2,3,3.8,3.9c1.7,0.9,3.5,1.4,5.7,1.4c1.8,0,3.6-0.3,5.1-1c1.6-0.6,2.9-1.6,4-2.9l5.2,5.3
			c-1.8,2.1-3.9,3.6-6.4,4.6C1006.2,353.9,1003.5,354.4,1000.7,354.4z"/>
		<path class="st2" d="M1024.1,353.7v-36h8.2v36H1024.1z M1032.3,333.7l-2.8-1.4c0-4.5,1-8.2,3-11.1c2-2.8,5.1-4.2,9.2-4.2
			c1.8,0,3.4,0.3,4.9,1c1.4,0.7,2.8,1.7,4.1,3.1l-5.4,5.6c-0.7-0.7-1.4-1.2-2.2-1.5c-0.8-0.3-1.7-0.4-2.8-0.4
			c-2.3,0-4.2,0.7-5.7,2.2C1033.1,328.3,1032.3,330.6,1032.3,333.7z"/>
		<path class="st2" d="M1086.7,354.4c-4.2,0-7.7-0.8-10.6-2.2c-2.9-1.5-5.5-3.7-7.8-6.6l5.9-5.9c1.4,2.1,3.2,3.7,5.2,4.9
			c2,1.2,4.5,1.8,7.6,1.8c2.9,0,5.2-0.6,6.9-1.8s2.6-2.9,2.6-4.9c0-1.8-0.4-3.2-1.3-4.3c-0.9-1.1-2.1-2-3.6-2.7
			c-1.5-0.7-3.1-1.4-4.9-2c-1.8-0.6-3.6-1.2-5.3-2c-1.8-0.7-3.4-1.6-4.9-2.7c-1.5-1.1-2.7-2.5-3.6-4.3c-0.9-1.7-1.4-4-1.4-6.7
			c0-3.1,0.8-5.7,2.3-7.9c1.5-2.2,3.6-3.8,6.2-5c2.6-1.1,5.5-1.7,8.7-1.7c3.4,0,6.5,0.7,9.3,2c2.7,1.3,4.9,3.1,6.6,5.2l-5.9,5.9
			c-1.5-1.7-3.1-3-4.7-3.8c-1.6-0.8-3.5-1.2-5.6-1.2c-2.6,0-4.6,0.5-6.1,1.6c-1.5,1-2.2,2.5-2.2,4.4c0,1.6,0.5,2.9,1.4,3.9
			c0.9,1,2.1,1.8,3.6,2.5c1.5,0.7,3.1,1.3,4.9,1.9c1.8,0.6,3.5,1.3,5.3,2c1.8,0.8,3.4,1.7,4.9,2.9c1.5,1.2,2.7,2.7,3.6,4.5
			c0.9,1.9,1.3,4.2,1.3,7c0,4.7-1.7,8.4-5,11.2C1096.8,353.1,1092.3,354.4,1086.7,354.4z"/>
		<path class="st2" d="M1123.1,354.1l-15.4-36.4h9.1l10.5,26.7h-2.6l11.1-26.7h9.1l-16.7,36.4H1123.1z M1112.4,368.7l11.2-23
			l4.6,8.4l-6.7,14.6H1112.4z"/>
		<path class="st2" d="M1160.8,354.4c-2,0-3.9-0.3-5.8-0.8c-1.9-0.5-3.6-1.3-5.1-2.2c-1.6-1-2.9-2.2-4-3.6l5.2-5.2
			c1.2,1.5,2.7,2.5,4.3,3.3c1.6,0.7,3.5,1.1,5.5,1.1c1.8,0,3.2-0.3,4.2-0.8c0.9-0.5,1.4-1.4,1.4-2.4c0-1.1-0.4-2-1.4-2.5
			c-0.9-0.6-2.1-1.1-3.5-1.5c-1.4-0.4-2.9-0.9-4.5-1.3c-1.6-0.4-3.1-1.1-4.5-1.8c-1.4-0.8-2.6-1.8-3.5-3.2c-0.9-1.4-1.4-3.1-1.4-5.2
			c0-2.3,0.5-4.3,1.6-5.9c1.1-1.6,2.6-2.9,4.6-3.8c2-0.9,4.3-1.4,7.1-1.4c2.9,0,5.5,0.5,7.7,1.5c2.2,1,4.1,2.6,5.6,4.6l-5.2,5.2
			c-1-1.3-2.2-2.3-3.6-2.9c-1.3-0.6-2.9-1-4.6-1c-1.6,0-2.9,0.3-3.8,0.8c-0.9,0.5-1.4,1.2-1.4,2.2c0,1,0.4,1.8,1.4,2.3
			c0.9,0.6,2.1,1,3.5,1.4c1.4,0.4,2.9,0.8,4.5,1.3c1.6,0.5,3.1,1.1,4.5,1.9c1.4,0.8,2.6,1.9,3.5,3.3c0.9,1.4,1.4,3.2,1.4,5.4
			c0,3.5-1.2,6.3-3.7,8.3C1168.3,353.4,1165,354.4,1160.8,354.4z"/>
		<path class="st2" d="M1178.1,325.2v-7.5h25.5v7.5H1178.1z M1186.7,353.7v-51h8.2v51H1186.7z"/>
		<path class="st2" d="M1225.3,354.4c-3.6,0-6.8-0.8-9.7-2.4c-2.9-1.6-5.2-3.9-6.8-6.7c-1.7-2.9-2.5-6-2.5-9.6
			c0-3.5,0.8-6.7,2.5-9.6c1.6-2.8,3.9-5.1,6.7-6.7c2.8-1.7,6-2.5,9.4-2.5c3.3,0,6.3,0.8,8.9,2.3c2.6,1.6,4.6,3.7,6.1,6.4
			c1.5,2.7,2.2,5.8,2.2,9.2c0,0.6,0,1.2-0.1,1.8c-0.1,0.6-0.2,1.3-0.3,2.1H1212V332h25.3l-3.1,2.7c-0.1-2.2-0.5-4-1.3-5.5
			s-1.8-2.6-3.2-3.5c-1.4-0.8-3.1-1.2-5.1-1.2c-2.1,0-3.9,0.5-5.5,1.4c-1.6,0.9-2.8,2.2-3.6,3.8c-0.9,1.6-1.3,3.6-1.3,5.8
			s0.5,4.2,1.4,5.9c0.9,1.7,2.2,3,3.8,3.9c1.7,0.9,3.5,1.4,5.7,1.4c1.8,0,3.6-0.3,5.1-1c1.6-0.6,2.9-1.6,4-2.9l5.2,5.3
			c-1.8,2.1-3.9,3.6-6.4,4.6C1230.7,353.9,1228.1,354.4,1225.3,354.4z"/>
		<path class="st2" d="M1248.6,353.7v-36h8.2v36H1248.6z M1272.5,353.7v-21.4c0-2.4-0.8-4.3-2.2-5.6c-1.5-1.3-3.4-2-5.5-2
			c-1.5,0-2.8,0.3-4,0.9c-1.2,0.6-2.1,1.5-2.8,2.6c-0.7,1.1-1,2.5-1,4.1l-3.2-1.8c0-2.7,0.6-5.1,1.8-7.1c1.2-2,2.8-3.6,4.9-4.7
			c2-1.1,4.4-1.7,6.9-1.7c2.5,0,4.8,0.6,6.9,1.7c2,1.1,3.7,2.7,4.9,4.6c1.2,2,1.8,4.4,1.8,7.2v23.2H1272.5z M1296.5,353.7v-21.4
			c0-2.4-0.8-4.3-2.2-5.6c-1.5-1.3-3.4-2-5.6-2c-1.5,0-2.8,0.3-4,0.9c-1.2,0.6-2.2,1.5-2.8,2.6c-0.7,1.1-1.1,2.5-1.1,4.1l-4.6-1.8
			c0.2-2.7,1-5.1,2.4-7.1c1.4-2,3.1-3.6,5.2-4.7c2.1-1.1,4.5-1.7,7-1.7c2.6,0,5,0.6,7,1.7c2.1,1.1,3.8,2.7,5,4.6
			c1.2,2,1.9,4.4,1.9,7.2v23.2H1296.5z"/>
		<path class="st2" d="M1325,354.4c-2,0-3.9-0.3-5.8-0.8c-1.9-0.5-3.6-1.3-5.1-2.2c-1.6-1-2.9-2.2-4.1-3.6l5.2-5.2
			c1.2,1.5,2.7,2.5,4.3,3.3c1.6,0.7,3.5,1.1,5.5,1.1c1.8,0,3.2-0.3,4.2-0.8c0.9-0.5,1.4-1.4,1.4-2.4c0-1.1-0.5-2-1.4-2.5
			c-0.9-0.6-2.1-1.1-3.5-1.5c-1.4-0.4-2.9-0.9-4.5-1.3c-1.6-0.4-3.1-1.1-4.5-1.8c-1.4-0.8-2.6-1.8-3.5-3.2c-0.9-1.4-1.4-3.1-1.4-5.2
			c0-2.3,0.5-4.3,1.6-5.9c1.1-1.6,2.6-2.9,4.6-3.8c2-0.9,4.3-1.4,7.1-1.4c2.9,0,5.5,0.5,7.7,1.5c2.2,1,4.1,2.6,5.6,4.6l-5.2,5.2
			c-1.1-1.3-2.2-2.3-3.6-2.9c-1.4-0.6-2.9-1-4.6-1c-1.6,0-2.9,0.3-3.8,0.8c-0.9,0.5-1.4,1.2-1.4,2.2c0,1,0.5,1.8,1.4,2.3
			c0.9,0.6,2.1,1,3.5,1.4c1.4,0.4,2.9,0.8,4.5,1.3c1.6,0.5,3.1,1.1,4.5,1.9c1.4,0.8,2.6,1.9,3.5,3.3c0.9,1.4,1.4,3.2,1.4,5.4
			c0,3.5-1.2,6.3-3.7,8.3C1332.5,353.4,1329.2,354.4,1325,354.4z"/>
	</g>
</g>
</svg>
